<svg id="Calque_1" data-name="Calque 1" xmlns="http://www.w3.org/2000/svg" viewBox="0 0 829.74 258.17"><defs><style>.cls-1{fill:#e63947;}.cls-2{fill:none;}.cls-3{fill:#1c3557;}</style></defs><path class="cls-1" d="M545.5,214.72a5.85,5.85,0,0,1-1.79-4.32,6.22,6.22,0,0,1,6.11-6.22,5.83,5.83,0,0,1,4.32,1.85,6.08,6.08,0,0,1,1.79,4.37,6.11,6.11,0,0,1-10.43,4.32Z"/><path class="cls-1" d="M581.64,211.51A27.75,27.75,0,0,1,571.36,201a30.06,30.06,0,0,1-3.74-14.91,31.5,31.5,0,0,1,3.59-15.12,26.58,26.58,0,0,1,9.9-10.48,27.09,27.09,0,0,1,14.22-3.79,26.27,26.27,0,0,1,21.39,10.11,3.24,3.24,0,0,1,.85,2.21,3.59,3.59,0,0,1-1.8,2.95,3.49,3.49,0,0,1-2,.64,4.23,4.23,0,0,1-3-1.58,21.58,21.58,0,0,0-7-5.22,20,20,0,0,0-8.43-1.74A19.28,19.28,0,0,0,585,166.83a18.64,18.64,0,0,0-7,7.85,25.56,25.56,0,0,0-2.47,11.38,23.63,23.63,0,0,0,2.63,11.22,19.46,19.46,0,0,0,7.38,7.85A20.63,20.63,0,0,0,596.39,208q8.43,0,13.59-4.53a4.32,4.32,0,0,1,2.84-1.16,3.62,3.62,0,0,1,2.32.84,3.71,3.71,0,0,1,1.48,2.85,3,3,0,0,1-1.06,2.31q-7.57,7.07-19.17,7.06A28.54,28.54,0,0,1,581.64,211.51Z"/><path class="cls-1" d="M644.7,211.56a27.3,27.3,0,0,1-10.49-10.48,31.74,31.74,0,0,1,0-30.08,27.18,27.18,0,0,1,10.49-10.54,31.52,31.52,0,0,1,30,0A27.63,27.63,0,0,1,685.15,171a31.52,31.52,0,0,1,.06,30.08,27.36,27.36,0,0,1-10.49,10.48,31.62,31.62,0,0,1-30,0Zm26-6.43a20.08,20.08,0,0,0,7.58-7.85,24.55,24.55,0,0,0,0-22.54,20.08,20.08,0,0,0-7.58-7.85,22.4,22.4,0,0,0-21.87,0,20.36,20.36,0,0,0-7.69,7.85,24.16,24.16,0,0,0,0,22.54,20.36,20.36,0,0,0,7.69,7.85,22.4,22.4,0,0,0,21.87,0Z"/><path class="cls-1" d="M776.5,159.51a20,20,0,0,1,7.48,8.38,28,28,0,0,1,2.69,12.59v30.34a3.81,3.81,0,0,1-4,4,4.12,4.12,0,0,1-3-1.11,3.83,3.83,0,0,1-1.15-2.9V180.48q0-7.48-3.85-11.86a12.77,12.77,0,0,0-10.06-4.37,14,14,0,0,0-10.75,4.43q-4.11,4.42-4,11.59v30.55a3.81,3.81,0,0,1-4,4,4.11,4.11,0,0,1-2.95-1.11,3.83,3.83,0,0,1-1.15-2.9V180.48q0-7.48-3.85-11.86a12.79,12.79,0,0,0-10.06-4.37,14.37,14.37,0,0,0-10.75,4.32,15.19,15.19,0,0,0-4.21,11.07v31.18a3.81,3.81,0,0,1-4,4,4.09,4.09,0,0,1-2.95-1.11,3.83,3.83,0,0,1-1.16-2.9V161.3a4,4,0,0,1,4.11-4.11,3.83,3.83,0,0,1,2.9,1.16,4.11,4.11,0,0,1,1.11,3v2.32a20.41,20.41,0,0,1,7-5.22,21.18,21.18,0,0,1,8.8-1.84,20.8,20.8,0,0,1,10.43,2.63,19.66,19.66,0,0,1,7.38,7.38,21.33,21.33,0,0,1,8-7.38,23,23,0,0,1,11-2.63A20.66,20.66,0,0,1,776.5,159.51Z"/><path class="cls-2" d="M202.48,132.16a33.32,33.32,0,1,0,33.43,33.21A33.25,33.25,0,0,0,202.48,132.16Z"/><path class="cls-3" d="M202.48,113.49a52,52,0,1,0,0,104,52,52,0,1,0,0-104Zm0,85.31a33.32,33.32,0,1,1,33.43-33.43A33.44,33.44,0,0,1,202.48,198.8Z"/><path class="cls-3" d="M293,125.87V115.66H274.32v99.42H293v-53c0-16.71,14.33-30,31.69-30l4.56-18.67C317.74,113.49,299.29,118.92,293,125.87Z"/><path class="cls-3" d="M498.75,125.87V115.66H480.08v99.42h18.67v-53c0-16.71,14.33-30,31.69-30L535,113.49C523.5,113.49,505.05,118.92,498.75,125.87Z"/><path class="cls-3" d="M388.93,197.28c-7.82,0-14.76-7.6-14.76-15.63V137H374V107h.17V97.9H509v10.74L521.57,97.9l8.51-7.28L534,87.28l-3.92-3.35-10.19-8.71L509,65.92v9.3H374.17V43H355.5V75.22H98.77C96.89,75.09,95,75,93.19,75a56,56,0,0,0-23.74,5.11c-7.82,3.61-13.23,7.81-17.13,13.22a37.87,37.87,0,0,0-6.61,21c0,13.82,6.61,24.94,19.23,32.16,8.41,4.8,31.25,9,32.15,9.31,18.64,3.31,26.75,9,26.75,18.33S116.93,188,113,189.8a39.81,39.81,0,0,1-15.93,3.31c-8.41,0-21.93-2.71-37.86-16.23L43,194.61a90.62,90.62,0,0,0,41.17,19.83A74.56,74.56,0,0,0,98.3,216a60.33,60.33,0,0,0,24.64-5.11c8.11-3.91,14.12-8.72,18.33-15a36.79,36.79,0,0,0,6.61-21.64,36.16,36.16,0,0,0-6.31-21c-3.3-4.21-6.31-7.52-14.42-11.72-6.91-3.91-31.56-9.32-31.86-9.32-18.33-3.91-25.54-8.72-25.54-17.73,0-5.41,3.91-10.82,9.92-13.82a33,33,0,0,1,14.72-3c.49,0,1,0,1.61,0,1,0,2.16.15,3.42.32H355.5v84.18a32.84,32.84,0,0,0,33,33h21.93l-4.78-17.8Z"/><rect class="cls-3" x="431.5" y="116" width="18.67" height="99.24"/><path class="cls-1" d="M441.33,43.2a18.51,18.51,0,0,0-18.51,18.51c0,.14,0,.27,0,.4a18.76,18.76,0,0,0,.33,3.2l2.17,5.7,15.5,40.82a.49.49,0,0,0,.91,0l15.41-40.55L459.53,65a18.77,18.77,0,0,0,.29-2.93c0-.13,0-.26,0-.4A18.51,18.51,0,0,0,441.33,43.2Zm0,29.23a11.61,11.61,0,1,1,11.6-11.61A11.61,11.61,0,0,1,441.3,72.43Z"/></svg>